<svg width="12" height="13" viewBox="0 0 12 13" fill="none" xmlns="http://www.w3.org/2000/svg">
<path fill-rule="evenodd" clip-rule="evenodd" d="M11.7071 2.36223C12.0976 1.97171 12.0976 1.33854 11.7071 0.94802C11.3166 0.557495 10.6834 0.557495 10.2929 0.94802L6.15511 5.08581L1.80757 0.73827C1.41705 0.347746 0.783881 0.347746 0.393357 0.73827C0.00283238 1.12879 0.00283236 1.76196 0.393357 2.15248L4.74089 6.50002L0.393398 10.8475C0.00287295 11.238 0.00287387 11.8712 0.393398 12.2617C0.783923 12.6523 1.41709 12.6523 1.80761 12.2617L6.15511 7.91423L10.2929 12.052C10.6834 12.4425 11.3165 12.4425 11.7071 12.052C12.0976 11.6615 12.0976 11.0283 11.7071 10.6378L7.56932 6.50002L11.7071 2.36223Z" fill="#BA2020"/>
</svg>
