<svg width="19" height="18" viewBox="0 0 19 18" fill="none" xmlns="http://www.w3.org/2000/svg">
<path d="M9.95403 1.17809L11.774 5.12369C11.9925 5.59739 12.4414 5.92356 12.9594 5.98498L17.2743 6.49658C17.698 6.54682 17.8682 7.07051 17.5549 7.36019L14.3648 10.3103C13.9818 10.6645 13.8103 11.1922 13.912 11.7039L14.7588 15.9657C14.842 16.3842 14.3965 16.7078 14.0242 16.4994L10.2327 14.3771C9.77745 14.1223 9.22255 14.1223 8.76734 14.3771L4.97582 16.4994C4.60351 16.7078 4.15803 16.3842 4.24119 15.9657L5.088 11.7039C5.18967 11.1922 5.01819 10.6645 4.63519 10.3103L1.44509 7.3602C1.13184 7.07051 1.302 6.54682 1.72569 6.49658L6.04057 5.98498C6.55861 5.92356 7.00754 5.5974 7.22604 5.12369L9.04597 1.17809C9.22468 0.790652 9.77532 0.790654 9.95403 1.17809Z" stroke="#363636"/>
</svg>
